<svg width="30" height="30" viewBox="0 0 30 30" fill="none" xmlns="http://www.w3.org/2000/svg">
<path fill-rule="evenodd" clip-rule="evenodd" d="M15 28.5C22.4558 28.5 28.5 22.4558 28.5 15C28.5 7.54416 22.4558 1.5 15 1.5C7.54416 1.5 1.5 7.54416 1.5 15C1.5 22.4558 7.54416 28.5 15 28.5ZM15 30C23.2843 30 30 23.2843 30 15C30 6.71573 23.2843 0 15 0C6.71573 0 0 6.71573 0 15C0 23.2843 6.71573 30 15 30Z" fill="#3B5999"/>
<path d="M18.5711 8.73828H20.625V5.75703C20.2707 5.71641 19.052 5.625 17.6327 5.625C11.1345 5.625 12.9025 11.7578 12.6438 12.6562H9.375V15.9891H12.6429V24.375H16.6494V15.9898H19.7851L20.2828 12.657H16.6485C16.8247 10.4508 15.9351 8.73828 18.5711 8.73828Z" fill="#3B5999"/>
</svg>
