<svg width="30" height="30" viewBox="0 0 30 30" fill="none" xmlns="http://www.w3.org/2000/svg">
<path fill-rule="evenodd" clip-rule="evenodd" d="M15 28.5C22.4558 28.5 28.5 22.4558 28.5 15C28.5 7.54416 22.4558 1.5 15 1.5C7.54416 1.5 1.5 7.54416 1.5 15C1.5 22.4558 7.54416 28.5 15 28.5ZM15 30C23.2843 30 30 23.2843 30 15C30 6.71573 23.2843 0 15 0C6.71573 0 0 6.71573 0 15C0 23.2843 6.71573 30 15 30Z" fill="black"/>
<path d="M21.844 14.8862C23.7902 15.0391 25.7224 15.206 27.3192 15.7043C25.7352 15.445 23.8123 15.0507 21.844 14.9955C21.0317 16.6004 19.3936 17.3889 17.1346 17.5546C17.3777 18.0826 17.8428 18.2838 17.9568 19.1345C18.1249 20.405 17.6911 22.2646 18.119 23.1106C18.3249 23.5159 18.6598 23.5264 18.8854 23.8735C18.3324 24.5277 16.9602 23.7996 16.8049 23.1106C16.5368 21.9302 17.2119 20.0985 16.477 19.2967C16.5293 20.5858 16.1734 22.3936 16.5322 23.5455C16.6735 23.9974 17.0823 24.1735 16.9706 24.5812C14.3988 24.8422 15.4739 21.2522 15.0535 19.1345C14.6651 19.1618 14.8354 19.7159 14.8343 19.9509C14.8227 22.0203 15.2582 24.8574 13.0276 24.5812C12.9631 24.1474 13.3283 23.9974 13.4661 23.6008C13.8725 22.4367 13.3899 20.7015 13.5765 19.2967C12.7253 19.9386 13.6655 22.1791 13.1375 23.3287C12.8346 23.9892 11.8548 24.277 11.1128 23.9817C11.2094 23.4886 11.7181 23.5694 11.9339 23.1106C12.2351 22.4698 11.935 21.5488 12.0432 20.6039C10.4674 20.9184 9.24512 20.5597 8.64736 19.5694C8.38046 19.1252 8.31359 18.6018 7.99087 18.2087C7.66757 17.8133 7.15471 17.761 7.00585 17.2272C8.95613 16.7568 9.03114 19.2351 10.7837 19.2967C11.3216 19.3159 11.6001 19.1409 12.0978 19.0251C12.2362 18.4006 12.5351 17.9337 12.9741 17.6075C10.7936 17.308 8.99276 16.6289 8.15601 14.9938C6.17434 15.0914 4.36071 15.356 2.67966 15.7567C4.20487 15.2019 6.08479 15.0042 8.10135 14.9397C7.98215 14.225 6.94072 14.4216 6.2947 14.4489C5.09395 14.5024 3.58037 14.6519 2.625 14.8309C4.01066 14.3367 5.95279 14.3983 7.82748 14.3948C7.25414 12.5963 7.45184 9.73953 8.70318 8.67543C8.34906 7.78286 8.45896 6.32045 8.9224 5.625C10.3179 5.6878 11.1652 6.29661 12.0432 6.87808C13.1311 6.56874 14.2755 6.41465 15.7658 6.49722C16.3926 6.53327 17.0456 6.81296 17.5178 6.76877C17.9812 6.7269 18.4924 6.20531 18.9413 6.00703C19.528 5.74769 20.0228 5.65 20.6944 5.625C21.0165 6.3565 21.2247 7.56946 20.9136 8.45738C22.1859 9.54357 22.622 12.1829 22.0085 14.3408C23.821 14.4786 25.98 14.2745 27.375 14.8309C26.0725 14.6629 24.2926 14.3344 22.6133 14.4495C22.2917 14.4716 21.8213 14.439 21.844 14.8862Z" fill="black"/>
</svg>
