<svg width="30" height="30" viewBox="0 0 30 30" fill="none" xmlns="http://www.w3.org/2000/svg">
<path fill-rule="evenodd" clip-rule="evenodd" d="M15 28.5C22.4558 28.5 28.5 22.4558 28.5 15C28.5 7.54416 22.4558 1.5 15 1.5C7.54416 1.5 1.5 7.54416 1.5 15C1.5 22.4558 7.54416 28.5 15 28.5ZM15 30C23.2843 30 30 23.2843 30 15C30 6.71573 23.2843 0 15 0C6.71573 0 0 6.71573 0 15C0 23.2843 6.71573 30 15 30Z" fill="url(#paint0_linear)"/>
<path d="M18.9556 6.375H11.0444C8.46966 6.375 6.375 8.46966 6.375 11.0444V18.9557C6.375 21.5303 8.46966 23.625 11.0444 23.625H18.9557C21.5303 23.625 23.625 21.5303 23.625 18.9557V11.0444C23.625 8.46966 21.5303 6.375 18.9556 6.375ZM15 19.7167C12.3992 19.7167 10.2833 17.6008 10.2833 15C10.2833 12.3992 12.3992 10.2833 15 10.2833C17.6008 10.2833 19.7167 12.3992 19.7167 15C19.7167 17.6008 17.6008 19.7167 15 19.7167ZM19.8295 11.3957C19.0609 11.3957 18.4357 10.7705 18.4357 10.002C18.4357 9.23337 19.0609 8.60811 19.8295 8.60811C20.598 8.60811 21.2233 9.23337 21.2233 10.002C21.2233 10.7705 20.598 11.3957 19.8295 11.3957Z" fill="url(#paint1_linear)"/>
<path d="M14.9998 11.2946C12.9568 11.2946 11.2944 12.9568 11.2944 15C11.2944 17.043 12.9568 18.7053 14.9998 18.7053C17.043 18.7053 18.7052 17.043 18.7052 15C18.7052 12.9568 17.043 11.2946 14.9998 11.2946V11.2946Z" fill="url(#paint2_linear)"/>
<path d="M19.8292 9.61951C19.6184 9.61951 19.4468 9.79112 19.4468 10.002C19.4468 10.2128 19.6184 10.3844 19.8292 10.3844C20.0402 10.3844 20.2118 10.2129 20.2118 10.002C20.2118 9.79099 20.0402 9.61951 19.8292 9.61951Z" fill="#953B9B"/>
<defs>
<linearGradient id="paint0_linear" x1="15" y1="1.17347e-07" x2="3.18751" y2="30.0001" gradientUnits="userSpaceOnUse">
<stop stop-color="#734FD5"/>
<stop offset="0.475164" stop-color="#EF0500"/>
<stop offset="1" stop-color="#F4C801"/>
</linearGradient>
<linearGradient id="paint1_linear" x1="15" y1="6.375" x2="8.20782" y2="23.625" gradientUnits="userSpaceOnUse">
<stop stop-color="#734FD5"/>
<stop offset="0.475164" stop-color="#EF0500"/>
<stop offset="1" stop-color="#F4C801"/>
</linearGradient>
<linearGradient id="paint2_linear" x1="18.6655" y1="12.5203" x2="11.3342" y2="18.6656" gradientUnits="userSpaceOnUse">
<stop stop-color="#F02F01"/>
<stop offset="1" stop-color="#F27D01"/>
</linearGradient>
</defs>
</svg>
