<svg width="30" height="30" viewBox="0 0 30 30" fill="none" xmlns="http://www.w3.org/2000/svg">
<path fill-rule="evenodd" clip-rule="evenodd" d="M15 28.5C22.4558 28.5 28.5 22.4558 28.5 15C28.5 7.54416 22.4558 1.5 15 1.5C7.54416 1.5 1.5 7.54416 1.5 15C1.5 22.4558 7.54416 28.5 15 28.5ZM15 30C23.2843 30 30 23.2843 30 15C30 6.71573 23.2843 0 15 0C6.71573 0 0 6.71573 0 15C0 23.2843 6.71573 30 15 30Z" fill="#2196F3"/>
<path d="M8.53124 10.6875C9.72209 10.6875 10.6875 9.7221 10.6875 8.53124C10.6875 7.34038 9.72209 6.375 8.53124 6.375C7.34038 6.375 6.375 7.34038 6.375 8.53124C6.375 9.7221 7.34038 10.6875 8.53124 10.6875Z" fill="#2196F3"/>
<path d="M6.73438 12.125H10.3281C10.5266 12.125 10.6875 12.2859 10.6875 12.4844V23.2656C10.6875 23.4641 10.5266 23.625 10.3281 23.625H6.73438C6.53591 23.625 6.375 23.464 6.375 23.2656V12.4844C6.375 12.2859 6.53591 12.125 6.73438 12.125Z" fill="#2196F3"/>
<path d="M21.0375 11.6305C19.4638 11.1821 17.772 11.4627 16.4274 12.3952C16.3866 12.2358 16.2427 12.1245 16.0781 12.125H12.4844C12.2859 12.125 12.125 12.2859 12.125 12.4844V23.2656C12.125 23.4641 12.2859 23.625 12.4844 23.625H16.0781C16.2766 23.625 16.4375 23.4641 16.4375 23.2656V15.5175C16.9568 15.0282 17.7077 14.8735 18.3781 15.1179C19.0081 15.4291 19.3801 16.0974 19.3125 16.7969V23.2656C19.3125 23.4641 19.4734 23.625 19.6719 23.625H23.2656C23.4641 23.625 23.625 23.4641 23.625 23.2656V16.0731C23.584 13.1197 22.1947 12.0265 21.0375 11.6305Z" fill="#2196F3"/>
</svg>
