<svg width="30" height="30" viewBox="0 0 30 30" fill="none" xmlns="http://www.w3.org/2000/svg">
<path fill-rule="evenodd" clip-rule="evenodd" d="M15 28.5C22.4558 28.5 28.5 22.4558 28.5 15C28.5 7.54416 22.4558 1.5 15 1.5C7.54416 1.5 1.5 7.54416 1.5 15C1.5 22.4558 7.54416 28.5 15 28.5ZM15 30C23.2843 30 30 23.2843 30 15C30 6.71573 23.2843 0 15 0C6.71573 0 0 6.71573 0 15C0 23.2843 6.71573 30 15 30Z" fill="#4CAF50"/>
<path d="M15.0023 5.625H14.9977C9.82852 5.625 5.625 9.82969 5.625 15C5.625 17.0508 6.28594 18.9516 7.40977 20.4949L6.24141 23.9777L9.84492 22.8258C11.3273 23.8078 13.0957 24.375 15.0023 24.375C20.1715 24.375 24.375 20.1691 24.375 15C24.375 9.83086 20.1715 5.625 15.0023 5.625Z" fill="#4CAF50"/>
<path d="M20.4792 18.7691C20.2533 19.4055 19.3565 19.9333 18.6412 20.0874C18.1519 20.1913 17.5127 20.2742 15.361 19.3845C12.6087 18.2471 10.8362 15.4575 10.6981 15.2766C10.5658 15.0956 9.58594 13.7994 9.58594 12.4589C9.58594 11.1184 10.2685 10.4657 10.5436 10.1855C10.7695 9.95543 11.143 9.85034 11.5012 9.85034C11.6171 9.85034 11.7213 9.85618 11.8149 9.86085C12.0901 9.87253 12.2282 9.88888 12.4096 10.3221C12.6356 10.8651 13.1858 12.2056 13.2514 12.3433C13.3181 12.4811 13.3848 12.668 13.2912 12.8489C13.2034 13.0358 13.1261 13.1187 12.988 13.2775C12.8498 13.4363 12.7187 13.5577 12.5806 13.7282C12.4541 13.8765 12.3113 14.0353 12.4705 14.3097C12.6297 14.5783 13.18 15.4739 13.9901 16.1932C15.0355 17.1215 15.8831 17.4181 16.1863 17.5442C16.4122 17.6376 16.6815 17.6154 16.8466 17.4403C17.0561 17.2149 17.3149 16.8412 17.5783 16.4734C17.7656 16.2095 18.0021 16.1768 18.2502 16.2703C18.5031 16.3578 19.8412 17.0176 20.1163 17.1542C20.3914 17.292 20.5729 17.3574 20.6396 17.473C20.7052 17.5886 20.7052 18.1315 20.4792 18.7691Z" fill="#FAFAFA"/>
</svg>
